<svg width="766" height="292" viewBox="0 0 766 292" fill="none" xmlns="http://www.w3.org/2000/svg">
<path d="M90.9433 135.046C90.9293 138.646 92.1176 141.651 94.5082 144.06C97.0317 146.602 100.026 147.947 103.493 148.093L153.892 148.282L154.101 94.6826L103.101 94.4915C89.9015 94.4421 78.1807 91.1981 67.939 84.7597C57.165 78.0526 51.0064 67.4295 49.463 52.8903C49.202 51.4226 49.0749 49.8221 49.0817 48.0888C49.1061 41.8222 50.4 34.827 52.9634 27.1032L54.9634 27.1107C59.0552 37.7928 64.761 44.8809 72.0807 48.375C77.0047 50.7934 81.4659 52.2102 85.4643 52.6252C90.6622 53.178 96.5944 53.4669 103.261 53.4918L214.86 53.91C218.327 53.7897 221.266 52.4673 223.676 49.943C226.085 47.552 227.297 44.6232 227.31 41.1566L227.32 38.5566L229.32 38.5641L229.041 110.364L227.041 110.356L227.051 107.756C227.069 102.956 225.083 99.3486 221.093 96.9337C219.231 95.7267 217.167 95.0523 214.901 94.9104L164.101 94.7201L163.892 148.32L210.892 148.496C218.492 148.524 225.819 150.152 232.873 153.378C239.927 156.605 245.976 161.161 251.02 167.046C259.117 176.277 263.141 187.225 263.092 199.892C263.073 204.825 262.386 210.022 261.031 215.484L259.031 215.477C257.056 209.069 253.811 203.59 249.295 199.04C246.64 196.23 241.849 193.745 234.924 191.586C231.462 190.506 227.464 189.892 222.931 189.741C218.532 189.591 214.465 189.509 210.732 189.495L103.333 189.093C98.6663 189.076 95.0583 191.129 92.5088 195.253C91.3011 197.248 90.6925 199.446 90.6832 201.846L90.6738 204.246L88.6738 204.238L88.9527 132.639L90.9527 132.646L90.9433 135.046Z" fill="#D7D7D7"/>
<path d="M335.196 157.1C330.063 160.1 324.83 161.6 319.496 161.6C314.163 161.6 309.096 160.6 304.296 158.6C299.563 156.6 294.896 153.1 290.296 148.1C285.763 143.167 282.03 137.133 279.096 130L276.396 123.4H254.996L250.996 132.7C250.663 133.567 250.496 134.267 250.496 134.8C250.496 135.333 250.596 135.933 250.796 136.6C251.063 137.2 251.563 137.767 252.296 138.3C253.096 138.767 253.93 139 254.796 139H255.696V140H233.396V139H234.296C235.83 139 237.33 138.567 238.796 137.7C240.33 136.767 241.596 135.4 242.596 133.6L262.996 88.8C260.996 83.2667 259.33 79.5667 257.996 77.7C256.73 75.7667 255.663 74.3 254.796 73.3C253.196 71.4333 251.196 70.0667 248.796 69.2C247.863 68.8667 246.763 68.7 245.496 68.7C244.23 68.7 242.796 69 241.196 69.6L240.996 68.6C246.33 65.4667 251.43 63.9 256.296 63.9C263.496 63.9 269.996 67.4333 275.796 74.5C278.73 78.1667 281.363 82.6 283.696 87.8L299.696 124.5C302.63 131.233 304.796 135.767 306.196 138.1C307.596 140.367 308.83 142.3 309.896 143.9C311.03 145.567 312.13 147 313.196 148.2C314.263 149.4 315.43 150.567 316.696 151.7C318.896 153.7 321.663 155.2 324.996 156.2C326.396 156.667 327.93 156.9 329.596 156.9C331.33 156.9 333.13 156.633 334.996 156.1L335.196 157.1ZM257.196 118.4H274.396L268.096 102.9C267.563 101.7 266.93 100 266.196 97.8L257.196 118.4Z" fill="#D7D7D7"/>
<path d="M319.85 240.838C321.583 240.821 323.044 240.206 324.231 238.994C325.485 237.714 326.137 236.208 326.186 234.474L325.623 178.977C325.539 177.244 324.857 175.784 323.579 174.597C322.367 173.409 320.894 172.824 319.161 172.842L317.861 172.855L317.851 171.855L353.749 171.491L353.759 172.491L352.459 172.504C350.726 172.522 349.232 173.137 347.977 174.35C346.79 175.562 346.171 177.035 346.122 178.769L346.685 234.266C346.702 235.999 347.351 237.493 348.63 238.747C349.909 239.934 351.415 240.518 353.148 240.501L354.448 240.488L354.458 241.488L318.56 241.851L318.55 240.851L319.85 240.838ZM400.356 241.022L389.556 241.132C377.29 241.256 368.69 238.01 363.756 231.393C361.729 228.747 358.853 224.509 355.127 218.68C351.467 212.783 349.637 209.802 349.636 209.735L373.205 176.894C373.664 176.223 373.892 175.621 373.886 175.087C373.881 174.554 373.776 174.088 373.572 173.69C373.095 172.695 372.157 172.205 370.757 172.219L369.757 172.229L369.748 171.329L393.847 171.085L393.856 171.985L393.456 171.989C388.989 172.034 385.34 173.704 382.506 177L365.814 197.57L389.569 232.531C392.886 237.431 396.478 239.928 400.346 240.022L400.356 241.022Z" fill="#D7D7D7"/>
<path d="M428.687 154.503C426.954 154.489 425.492 153.877 424.302 152.668C423.045 151.391 422.391 149.886 422.338 148.152L422.781 92.7537C422.865 90.621 423.778 88.9282 425.521 87.6755C426.594 86.884 427.831 86.4939 429.231 86.5051L430.531 86.5155L430.539 85.5155L386.24 85.1614C383.374 85.1385 380.842 84.8849 378.646 84.4007C376.383 83.9159 374.953 83.5378 374.355 83.2664L374.19 103.866L375.19 103.874L375.197 103.074C375.239 97.7406 377.203 94.0228 381.086 91.9205C382.961 90.8687 385.199 90.3199 387.799 90.2741L402.299 90.39L402.076 118.289L391.176 118.202C387.977 118.11 385.385 117.056 383.401 115.04C381.418 112.957 380.439 110.316 380.465 107.116L380.468 106.716L379.468 106.708L379.246 134.507L380.246 134.515L380.25 134.015C380.275 130.882 381.295 128.323 383.311 126.339C385.328 124.289 387.903 123.243 391.036 123.201L402.036 123.289L401.821 150.188L389.521 150.09C384.655 150.051 380.368 148.417 376.66 145.187C372.953 141.957 370.355 137.503 368.867 131.824L367.867 131.816L371.481 155.046L429.979 155.513L429.987 154.513L428.687 154.503Z" fill="#D7D7D7"/>
<path d="M491.16 197.078C491.457 209.607 488.589 219.445 482.556 226.59C476.592 233.8 468.112 237.535 457.115 237.795C446.118 238.056 437.437 234.727 431.071 227.81C424.773 220.957 421.476 211.265 421.18 198.736L420.282 160.846L421.282 160.823L421.312 162.122C421.353 163.855 421.988 165.307 423.216 166.478C424.512 167.715 426.028 168.346 427.762 168.371L483.746 167.045C485.346 167.007 486.663 166.309 487.698 164.951C488.801 163.657 489.333 162.178 489.293 160.512L489.265 159.312L490.262 159.188L491.16 197.078ZM485.932 187.499L425.948 188.92L426.131 196.618C426.278 202.816 429.025 207.619 434.374 211.027C439.79 214.433 447.196 216.024 456.594 215.802C465.991 215.579 473.28 213.639 478.462 209.982C483.71 206.323 486.261 201.395 486.114 195.197L485.932 187.499Z" fill="#D7D7D7"/>
<path d="M292.011 70.4763C291.971 62.943 293.669 56.4336 297.107 50.9479C300.545 45.4622 305.522 41.2681 312.04 38.3655C318.625 35.4626 326.684 33.9848 336.217 33.9324C345.75 33.8799 354.125 35.3671 361.341 38.3941L360.443 57.4994L359.543 57.5043C357.574 50.7817 354.748 45.9972 351.066 43.1508C347.384 40.3043 342.81 38.8961 337.344 38.9262C329.944 38.967 324.192 41.732 320.087 47.2214C315.983 52.7107 313.957 60.3553 314.009 70.1552C314.061 79.8884 316.002 87.5445 319.832 93.1235C323.728 98.7021 329.077 101.573 335.878 101.735C343.744 101.692 349.434 99.7939 352.948 96.0412C356.262 92.5562 358.827 85.8754 360.641 75.9986L361.441 75.9941L363.938 94.1807C359.049 102.474 349.737 106.626 336.004 106.635C322.337 106.71 311.587 103.602 303.754 97.312C295.986 90.9547 292.072 82.0094 292.011 70.4763Z" fill="#D7D7D7"/>
<path d="M548.607 21.1C551.473 20.5 553.873 20.2 555.807 20.2C557.74 20.2 559.54 20.3 561.207 20.5V21.5C547.673 22.5 538.607 30.5333 534.007 45.6L515.407 106.1C514.473 109.367 514.007 113.067 514.007 117.2H513.007L490.007 73.8L471.407 111.8C469.473 115.867 467.573 119 465.707 121.2C463.907 123.4 462.307 125.167 460.907 126.5C459.573 127.833 458.207 128.967 456.807 129.9C453.007 132.3 449.607 133.5 446.607 133.5C445.007 133.5 443.307 133.333 441.507 133V132C445.973 131.2 449.907 129.033 453.307 125.5C456.84 121.767 459.373 118.5 460.907 115.7C463.04 111.833 464.773 108.433 466.107 105.5L445.807 51.7C444.873 49.7667 443.607 48.3333 442.007 47.4C440.473 46.4667 438.873 46 437.207 46H436.407V45H472.307V46H471.407C469.407 46 468.073 46.9333 467.407 48.8C467.34 49.2 467.307 49.6667 467.307 50.2C467.307 50.7333 467.44 51.4 467.707 52.2L478.607 79.4L495.907 43.4L496.807 43.5L516.607 80.1L526.207 45.6C527.807 39.8 530.373 34.7667 533.907 30.5C538.107 25.4333 543.007 22.3 548.607 21.1Z" fill="#D7D7D7"/>
<path d="M604.693 227.1C599.559 230.1 594.326 231.6 588.993 231.6C583.659 231.6 578.593 230.6 573.793 228.6C569.059 226.6 564.393 223.1 559.793 218.1C555.259 213.167 551.526 207.133 548.593 200L545.893 193.4H524.493L520.493 202.7C520.159 203.567 519.993 204.267 519.993 204.8C519.993 205.333 520.093 205.933 520.293 206.6C520.559 207.2 521.059 207.767 521.793 208.3C522.593 208.767 523.426 209 524.293 209H525.193V210H502.893V209H503.793C505.326 209 506.826 208.567 508.293 207.7C509.826 206.767 511.093 205.4 512.093 203.6L532.493 158.8C530.493 153.267 528.826 149.567 527.493 147.7C526.226 145.767 525.159 144.3 524.293 143.3C522.693 141.433 520.693 140.067 518.293 139.2C517.359 138.867 516.259 138.7 514.993 138.7C513.726 138.7 512.293 139 510.693 139.6L510.493 138.6C515.826 135.467 520.926 133.9 525.793 133.9C532.993 133.9 539.493 137.433 545.293 144.5C548.226 148.167 550.859 152.6 553.193 157.8L569.193 194.5C572.126 201.233 574.293 205.767 575.693 208.1C577.093 210.367 578.326 212.3 579.393 213.9C580.526 215.567 581.626 217 582.693 218.2C583.759 219.4 584.926 220.567 586.193 221.7C588.393 223.7 591.159 225.2 594.493 226.2C595.893 226.667 597.426 226.9 599.093 226.9C600.826 226.9 602.626 226.633 604.493 226.1L604.693 227.1ZM526.693 188.4H543.893L537.593 172.9C537.059 171.7 536.426 170 535.693 167.8L526.693 188.4Z" fill="#D7D7D7"/>
<path d="M568.661 54.3395C572.261 54.3176 575.6 55.2973 578.68 57.2786C581.692 59.1936 583.84 61.5473 585.124 64.3395C586.342 67.1321 586.959 69.8951 586.977 72.6284C586.982 73.4284 586.953 74.1952 586.891 74.9289C587.731 70.7238 590.307 66.8747 594.618 63.3817C596.542 61.77 599.03 59.9548 602.084 57.9362C605.071 55.918 607.129 54.5055 608.257 53.6986C613.965 49.6638 618.607 45.6355 622.181 41.6137C629.861 33.0335 634.058 22.0411 634.773 8.63646L635.773 8.63038C638.396 12.2812 640.292 16.8697 641.46 22.396C642.148 25.6586 642.501 28.9232 642.522 32.1898C642.542 35.3897 642.097 38.7925 641.187 42.3981C640.276 46.0037 638.898 49.5455 637.054 53.0234C635.209 56.5014 632.531 60.051 629.021 63.6725C625.51 67.2272 621.928 70.1491 618.276 72.438C614.557 74.7273 611.036 76.7154 607.714 78.4023C604.324 80.0897 601.001 81.7099 597.744 83.2631C594.487 84.7496 592.493 85.6617 591.761 85.9995C587.774 87.9572 585.551 89.704 585.094 91.2402L584.094 91.2463L584.084 89.6463C584.057 85.313 582.334 81.7568 578.917 78.9775C576.973 77.3893 574.967 76.4682 572.899 76.2141C570.764 75.9604 569.397 75.8354 568.797 75.839C563.797 75.8694 560.173 77.3582 557.925 80.3052C555.61 83.2527 554.464 86.5931 554.488 90.3263L554.516 94.7262L612.015 94.3765C613.748 94.3659 615.244 93.7235 616.503 92.4491C617.695 91.1752 618.285 89.6716 618.274 87.9383L618.267 86.7383L619.267 86.7322L619.494 122.632L618.494 122.638L618.485 121.338C618.474 119.604 617.865 118.141 616.658 116.949C615.45 115.689 613.979 115.032 612.245 114.975L556.746 115.313C554.28 115.395 552.453 116.473 551.266 118.546C550.739 119.55 550.479 120.618 550.487 121.751L550.494 122.951L549.494 122.957L549.248 83.9581C549.185 74.025 550.87 66.4812 554.305 61.3269C557.409 56.7079 562.194 54.3788 568.661 54.3395Z" fill="#D7D7D7"/>
<path d="M704.251 83.9181C707.117 83.9283 710.182 84.5725 713.444 85.8508C716.639 87.1289 719.598 89.1727 722.321 91.9824C725.044 94.7922 727.264 98.4001 728.981 102.806C730.698 107.212 731.547 112.015 731.528 117.215C731.508 122.415 730.658 127.079 728.976 131.206C725.881 138.929 720.495 143.943 712.82 146.249C710.751 146.842 708.817 147.135 707.017 147.128C701.217 147.108 695.79 145.322 690.737 141.77L691.44 140.873C695.365 143.087 699.161 144.2 702.828 144.213C707.361 144.23 711.365 143.11 714.84 140.856C718.315 138.602 721.026 135.578 722.974 131.785C724.921 127.992 725.902 124.129 725.917 120.195C725.931 116.195 725.311 112.827 724.054 110.089C722.797 107.351 721.105 105.345 718.976 104.071C716.848 102.796 714.617 102.155 712.283 102.147C709.95 102.138 707.58 102.963 705.174 104.622C702.701 106.279 700.559 108.738 698.747 111.999L689.087 128.264C684.189 136.514 677.907 140.625 670.241 140.597C663.374 140.573 658.083 138.154 654.368 133.341C651.249 129.33 649.702 123.891 649.728 117.024C649.744 112.624 650.098 107.026 650.79 100.228L650.819 92.428L667.111 94.586L667.107 95.586C663.441 95.5729 660.469 96.9957 658.191 99.8543C655.914 102.713 654.767 106.375 654.751 110.842C654.734 115.309 655.488 118.745 657.013 121.15C658.537 123.556 660.566 124.863 663.098 125.072C664.831 125.278 666.299 124.817 667.503 123.688C668.574 122.691 669.411 121.694 670.014 120.696C670.551 119.698 671.055 118.8 671.524 118.002C671.994 117.204 672.296 116.638 672.431 116.305L683.2 97.6433C685.549 93.4516 688.461 90.1953 691.936 87.8743C695.879 85.2216 699.984 83.9029 704.251 83.9181Z" fill="#D7D7D7"/>
<path d="M630.288 153.9V211.8C630.355 213.533 630.988 215 632.188 216.2C633.455 217.4 634.955 218 636.688 218H637.988V219H602.088V218H603.388C605.121 218 606.588 217.4 607.788 216.2C609.055 215 609.721 213.567 609.788 211.9V153.9H599.888C595.888 153.967 592.755 155.167 590.488 157.5C588.221 159.767 587.088 162.9 587.088 166.9V167.6L586.088 167.7V147.1C587.021 147.5 588.688 147.9 591.088 148.3C593.555 148.7 595.821 148.9 597.888 148.9H642.188C644.255 148.9 646.488 148.7 648.888 148.3C651.288 147.9 652.988 147.5 653.988 147.1V167.7L652.988 167.6V166.9C652.988 161.5 650.988 157.7 646.988 155.5C645.055 154.5 642.755 153.967 640.088 153.9H630.288Z" fill="#D7D7D7"/>
</svg>
