<svg width="790" height="257" viewBox="0 0 790 257" fill="none" xmlns="http://www.w3.org/2000/svg">
<g filter="url(#filter0_d)">
<path d="M90.9433 128.046C90.9293 131.646 92.1176 134.651 94.5082 137.06C97.0317 139.602 100.026 140.947 103.493 141.093L153.892 141.282L154.101 87.6826L103.101 87.4915C89.9015 87.4421 78.1807 84.1981 67.939 77.7597C57.165 71.0526 51.0064 60.4295 49.463 45.8903C49.202 44.4226 49.0749 42.8221 49.0817 41.0888C49.1061 34.8222 50.4 27.827 52.9634 20.1032L54.9634 20.1107C59.0552 30.7928 64.761 37.8809 72.0807 41.375C77.0047 43.7934 81.4659 45.2102 85.4643 45.6252C90.6622 46.178 96.5944 46.4669 103.261 46.4918L214.86 46.91C218.327 46.7897 221.266 45.4673 223.676 42.943C226.085 40.552 227.297 37.6232 227.31 34.1566L227.32 31.5566L229.32 31.5641L229.041 103.364L227.041 103.356L227.051 100.756C227.069 95.9561 225.083 92.3486 221.093 89.9337C219.231 88.7267 217.167 88.0523 214.901 87.9104L164.101 87.7201L163.892 141.32L210.892 141.496C218.492 141.524 225.819 143.152 232.873 146.378C239.927 149.605 245.976 154.161 251.02 160.046C259.117 169.277 263.141 180.225 263.092 192.892C263.073 197.825 262.386 203.022 261.031 208.484L259.031 208.477C257.056 202.069 253.811 196.59 249.295 192.04C246.64 189.23 241.849 186.745 234.924 184.586C231.462 183.506 227.464 182.892 222.931 182.741C218.532 182.591 214.465 182.509 210.732 182.495L103.333 182.093C98.6663 182.076 95.0583 184.129 92.5088 188.253C91.3011 190.248 90.6925 192.446 90.6832 194.846L90.6738 197.246L88.6738 197.238L88.9527 125.639L90.9527 125.646L90.9433 128.046Z" fill="#D7D7D7"/>
<path d="M289.667 107.7C287.6 104.233 286.567 100.567 286.567 96.7C286.567 91.3667 288.567 87.0333 292.567 83.7C294.967 81.6333 297.933 80.2667 301.467 79.6C303.6 79.2667 305.3 79.1 306.567 79.1C307.9 79.1 309.3 79.1333 310.767 79.2C312.233 79.2 314.367 79.6333 317.167 80.5C320.033 81.3667 322.8 82.4333 325.467 83.7C328.133 84.9 330.633 86.5667 332.967 88.7C335.367 90.8333 337.467 93.1667 339.267 95.7C343.133 101.167 345.067 107.767 345.067 115.5C345.067 126.7 340.9 135.667 332.567 142.4C324.3 149.067 313.333 152.4 299.667 152.4C286 152.4 274.967 149.033 266.567 142.3C258.167 135.567 253.967 126.7 253.967 115.7C253.967 106.633 256.767 98.8667 262.367 92.4C268.033 85.8667 275.4 81.8333 284.467 80.3L285.067 81.3C282.333 84.1667 280.133 88.4333 278.467 94.1C276.867 99.7 276.067 105.767 276.067 112.3C276.067 122.9 278.2 131.4 282.467 137.8C286.733 144.2 292.4 147.4 299.467 147.4C306.6 147.4 312.3 144.5 316.567 138.7C320.833 132.9 322.967 125.167 322.967 115.5C322.967 109.367 322.1 103.867 320.367 99C318.7 94.1333 316.367 90.5 313.367 88.1C310.367 85.7 307.2 84.5 303.867 84.5C299.533 84.5 296.2 85.8 293.867 88.4C291.133 91.4 289.767 95.1333 289.767 99.6C289.767 102.133 290.133 104.833 290.867 107.7H289.667Z" fill="#D7D7D7"/>
<path d="M321.822 231.262C321.814 229.662 321.906 228.062 322.098 226.461C323.132 219.789 325.604 214.011 329.513 209.126C333.423 204.24 338.305 200.584 344.16 198.156C342.331 192.365 341.401 186.269 341.37 179.869C341.308 167.27 344.591 157.021 351.219 149.123C357.914 141.291 366.729 137.349 377.662 137.298C388.595 137.246 397.381 141.205 404.02 149.174C410.726 157.142 414.111 167.66 414.175 180.726C414.212 188.259 413.481 195.596 411.983 202.737C411.332 205.94 410.611 208.543 409.821 210.547L390.616 209.638L390.612 208.738C396.871 207.108 401.522 203.919 404.565 199.172C407.676 194.49 409.215 188.816 409.182 182.15C409.149 175.483 406.189 169.997 400.301 165.691C394.413 161.386 386.669 159.256 377.07 159.301C371.003 159.329 365.641 160.288 360.983 162.177C356.326 164.065 352.706 166.749 350.123 170.228C347.607 173.707 346.359 177.546 346.379 181.746C346.4 186.012 347.383 189.341 349.328 191.732C351.34 194.189 353.946 195.41 357.146 195.395L370.746 195.331C372.213 195.391 373.344 194.952 374.14 194.015C374.935 193.145 375.329 191.876 375.321 190.209L375.314 188.709L376.314 188.705L376.478 222.304L375.478 222.309L375.471 220.709C375.463 219.109 375.057 217.878 374.252 217.015C373.448 216.152 372.313 215.757 370.847 215.831L354.647 215.907C350.78 215.925 346.951 216.71 343.158 218.261C334.775 221.768 329.402 227.326 327.04 234.938C326.384 237.141 326.061 239.342 326.072 241.542C326.083 243.742 326.327 245.908 326.804 248.039L325.805 248.244C323.176 242.256 321.848 236.595 321.822 231.262Z" fill="#D7D7D7"/>
<path d="M498.607 9.09999C501.473 8.49999 503.873 8.19999 505.807 8.19999C507.74 8.19999 509.54 8.29999 511.207 8.49999V9.49999C497.673 10.5 488.607 18.5333 484.007 33.6L465.407 94.1C464.473 97.3667 464.007 101.067 464.007 105.2H463.007L440.007 61.8L421.407 99.8C419.473 103.867 417.573 107 415.707 109.2C413.907 111.4 412.307 113.167 410.907 114.5C409.573 115.833 408.207 116.967 406.807 117.9C403.007 120.3 399.607 121.5 396.607 121.5C395.007 121.5 393.307 121.333 391.507 121V120C395.973 119.2 399.907 117.033 403.307 113.5C406.84 109.767 409.373 106.5 410.907 103.7C413.04 99.8333 414.773 96.4333 416.107 93.5L395.807 39.7C394.873 37.7667 393.607 36.3333 392.007 35.4C390.473 34.4667 388.873 34 387.207 34H386.407V33H422.307V34H421.407C419.407 34 418.073 34.9333 417.407 36.8C417.34 37.2 417.307 37.6667 417.307 38.2C417.307 38.7333 417.44 39.4 417.707 40.2L428.607 67.4L445.907 31.4L446.807 31.5L466.607 68.1L476.207 33.6C477.807 27.8 480.373 22.7667 483.907 18.5C488.107 13.4333 493.007 10.3 498.607 9.09999Z" fill="#D7D7D7"/>
<path d="M572.693 210.1C567.559 213.1 562.326 214.6 556.993 214.6C551.659 214.6 546.593 213.6 541.793 211.6C537.059 209.6 532.393 206.1 527.793 201.1C523.259 196.167 519.526 190.133 516.593 183L513.893 176.4H492.493L488.493 185.7C488.159 186.567 487.993 187.267 487.993 187.8C487.993 188.333 488.093 188.933 488.293 189.6C488.559 190.2 489.059 190.767 489.793 191.3C490.593 191.767 491.426 192 492.293 192H493.193V193H470.893V192H471.793C473.326 192 474.826 191.567 476.293 190.7C477.826 189.767 479.093 188.4 480.093 186.6L500.493 141.8C498.493 136.267 496.826 132.567 495.493 130.7C494.226 128.767 493.159 127.3 492.293 126.3C490.693 124.433 488.693 123.067 486.293 122.2C485.359 121.867 484.259 121.7 482.993 121.7C481.726 121.7 480.293 122 478.693 122.6L478.493 121.6C483.826 118.467 488.926 116.9 493.793 116.9C500.993 116.9 507.493 120.433 513.293 127.5C516.226 131.167 518.859 135.6 521.193 140.8L537.193 177.5C540.126 184.233 542.293 188.767 543.693 191.1C545.093 193.367 546.326 195.3 547.393 196.9C548.526 198.567 549.626 200 550.693 201.2C551.759 202.4 552.926 203.567 554.193 204.7C556.393 206.7 559.159 208.2 562.493 209.2C563.893 209.667 565.426 209.9 567.093 209.9C568.826 209.9 570.626 209.633 572.493 209.1L572.693 210.1ZM494.693 171.4H511.893L505.593 155.9C505.059 154.7 504.426 153 503.693 150.8L494.693 171.4Z" fill="#D7D7D7"/>
<path d="M569.255 45.8685C572.855 45.8466 576.195 46.8263 579.274 48.8076C582.286 50.7227 584.435 53.0763 585.719 55.8686C586.937 58.6612 587.554 61.4242 587.571 64.1574C587.577 64.9574 587.548 65.7243 587.486 66.458C588.326 62.2528 590.902 58.4037 595.213 54.9108C597.136 53.299 599.625 51.4839 602.679 49.4653C605.666 47.4471 607.724 46.0345 608.852 45.2276C614.56 41.1928 619.201 37.1645 622.776 33.1427C630.455 24.5625 634.653 13.5701 635.368 0.165513L636.368 0.159431C638.991 3.81021 640.887 8.39876 642.055 13.9251C642.742 17.1876 643.096 20.4522 643.117 23.7188C643.137 26.9187 642.692 30.3215 641.781 33.9271C640.871 37.5327 639.493 41.0745 637.648 44.5525C635.804 48.0304 633.126 51.5801 629.616 55.2015C626.105 58.7563 622.523 61.6781 618.871 63.967C615.152 66.2564 611.631 68.2445 608.308 69.9314C604.919 71.6187 601.596 73.239 598.339 74.7921C595.082 76.2786 593.087 77.1908 592.356 77.5286C588.368 79.4862 586.146 81.2331 585.689 82.7692L584.689 82.7753L584.679 81.1753C584.652 76.8421 582.929 73.2858 579.511 70.5066C577.568 68.9184 575.562 67.9972 573.494 67.7431C571.359 67.4894 569.991 67.3644 569.391 67.3681C564.391 67.3985 560.767 68.8872 558.519 71.8343C556.205 74.7818 555.059 78.1221 555.083 81.8554L555.111 86.2553L612.609 85.9055C614.343 85.895 615.839 85.2525 617.097 83.9782C618.289 82.7043 618.88 81.2006 618.869 79.4673L618.861 78.2674L619.861 78.2613L620.088 114.161L619.088 114.167L619.08 112.867C619.069 111.133 618.46 109.67 617.252 108.478C616.044 107.218 614.573 106.561 612.84 106.505L557.341 106.842C554.875 106.924 553.048 108.002 551.861 110.076C551.334 111.079 551.074 112.147 551.081 113.28L551.089 114.48L550.089 114.486L549.842 75.4871C549.78 65.554 551.465 58.0103 554.899 52.856C558.004 48.237 562.789 45.9078 569.255 45.8685Z" fill="#D7D7D7"/>
<path d="M729.086 82.9181C731.953 82.9283 735.017 83.5725 738.279 84.8508C741.474 86.1289 744.433 88.1727 747.156 90.9824C749.879 93.7922 752.099 97.4001 753.816 101.806C755.533 106.212 756.382 111.015 756.363 116.215C756.344 121.415 755.493 126.079 753.811 130.206C750.716 137.929 745.331 142.943 737.656 145.249C735.587 145.842 733.652 146.135 731.852 146.128C726.052 146.108 720.626 144.322 715.572 140.77L716.275 139.873C720.201 142.087 723.996 143.2 727.663 143.213C732.196 143.23 736.201 142.11 739.676 139.856C743.151 137.602 745.862 134.578 747.809 130.785C749.757 126.992 750.738 123.129 750.752 119.195C750.767 115.195 750.146 111.827 748.889 109.089C747.633 106.351 745.94 104.345 743.812 103.071C741.683 101.796 739.452 101.155 737.119 101.147C734.785 101.138 732.416 101.963 730.01 103.622C727.537 105.279 725.394 107.738 723.582 110.999L713.922 127.264C709.025 135.514 702.743 139.625 695.076 139.597C688.21 139.573 682.919 137.154 679.203 132.341C676.084 128.33 674.538 122.891 674.563 116.024C674.58 111.624 674.934 106.026 675.625 99.2279L675.654 91.428L691.946 93.586L691.943 94.586C688.276 94.5729 685.304 95.9957 683.027 98.8543C680.75 101.713 679.603 105.375 679.586 109.842C679.57 114.309 680.324 117.745 681.848 120.15C683.373 122.556 685.401 123.863 687.934 124.072C689.666 124.278 691.135 123.817 692.339 122.688C693.409 121.691 694.246 120.694 694.85 119.696C695.387 118.698 695.89 117.8 696.36 117.002C696.829 116.204 697.132 115.638 697.266 115.305L708.035 96.6433C710.384 92.4516 713.296 89.1953 716.771 86.8743C720.715 84.2216 724.819 82.9029 729.086 82.9181Z" fill="#D7D7D7"/>
<path d="M622.288 154.9V212.8C622.355 214.533 622.988 216 624.188 217.2C625.455 218.4 626.955 219 628.688 219H629.988V220H594.088V219H595.388C597.121 219 598.588 218.4 599.788 217.2C601.055 216 601.721 214.567 601.788 212.9V154.9H591.888C587.888 154.967 584.755 156.167 582.488 158.5C580.221 160.767 579.088 163.9 579.088 167.9V168.6L578.088 168.7V148.1C579.021 148.5 580.688 148.9 583.088 149.3C585.555 149.7 587.821 149.9 589.888 149.9H634.188C636.255 149.9 638.488 149.7 640.888 149.3C643.288 148.9 644.988 148.5 645.988 148.1V168.7L644.988 168.6V167.9C644.988 162.5 642.988 158.7 638.988 156.5C637.055 155.5 634.755 154.967 632.088 154.9H622.288Z" fill="#D7D7D7"/>
</g>
<defs>
<filter id="filter0_d" x="45.0815" y="0.159424" width="715.282" height="256.084" filterUnits="userSpaceOnUse" color-interpolation-filters="sRGB">
<feFlood flood-opacity="0" result="BackgroundImageFix"/>
<feColorMatrix in="SourceAlpha" type="matrix" values="0 0 0 0 0 0 0 0 0 0 0 0 0 0 0 0 0 0 127 0" result="hardAlpha"/>
<feOffset dy="4"/>
<feGaussianBlur stdDeviation="2"/>
<feComposite in2="hardAlpha" operator="out"/>
<feColorMatrix type="matrix" values="0 0 0 0 0 0 0 0 0 0 0 0 0 0 0 0 0 0 0.25 0"/>
<feBlend mode="normal" in2="BackgroundImageFix" result="effect1_dropShadow"/>
<feBlend mode="normal" in="SourceGraphic" in2="effect1_dropShadow" result="shape"/>
</filter>
</defs>
</svg>
