<svg width="752" height="257" viewBox="0 0 752 257" fill="none" xmlns="http://www.w3.org/2000/svg">
<path d="M90.9433 128.046C90.9293 131.646 92.1176 134.651 94.5082 137.06C97.0317 139.602 100.026 140.947 103.493 141.093L153.892 141.282L154.101 87.6826L103.101 87.4915C89.9015 87.4421 78.1807 84.1981 67.939 77.7597C57.165 71.0526 51.0064 60.4295 49.463 45.8903C49.202 44.4226 49.0749 42.8221 49.0817 41.0888C49.1061 34.8222 50.4 27.827 52.9634 20.1032L54.9634 20.1107C59.0552 30.7928 64.761 37.8809 72.0807 41.375C77.0047 43.7934 81.4659 45.2102 85.4643 45.6252C90.6622 46.178 96.5944 46.4669 103.261 46.4918L214.86 46.91C218.327 46.7897 221.266 45.4673 223.676 42.943C226.085 40.552 227.297 37.6232 227.31 34.1566L227.32 31.5566L229.32 31.5641L229.041 103.364L227.041 103.356L227.051 100.756C227.069 95.9561 225.083 92.3486 221.093 89.9337C219.231 88.7267 217.167 88.0523 214.901 87.9104L164.101 87.7201L163.892 141.32L210.892 141.496C218.492 141.524 225.819 143.152 232.873 146.378C239.927 149.605 245.976 154.161 251.02 160.046C259.117 169.277 263.141 180.225 263.092 192.892C263.073 197.825 262.386 203.022 261.031 208.484L259.031 208.477C257.056 202.069 253.811 196.59 249.295 192.04C246.64 189.23 241.849 186.745 234.924 184.586C231.462 183.506 227.464 182.892 222.931 182.741C218.532 182.591 214.465 182.509 210.732 182.495L103.333 182.093C98.6663 182.076 95.0583 184.129 92.5088 188.253C91.3011 190.248 90.6925 192.446 90.6832 194.846L90.6738 197.246L88.6738 197.238L88.9527 125.639L90.9527 125.646L90.9433 128.046Z" fill="#D7D7D7"/>
<path d="M289.667 107.7C287.6 104.233 286.567 100.567 286.567 96.7C286.567 91.3667 288.567 87.0333 292.567 83.7C294.967 81.6333 297.933 80.2667 301.467 79.6C303.6 79.2667 305.3 79.1 306.567 79.1C307.9 79.1 309.3 79.1333 310.767 79.2C312.233 79.2 314.367 79.6333 317.167 80.5C320.033 81.3667 322.8 82.4333 325.467 83.7C328.133 84.9 330.633 86.5667 332.967 88.7C335.367 90.8333 337.467 93.1667 339.267 95.7C343.133 101.167 345.067 107.767 345.067 115.5C345.067 126.7 340.9 135.667 332.567 142.4C324.3 149.067 313.333 152.4 299.667 152.4C286 152.4 274.967 149.033 266.567 142.3C258.167 135.567 253.967 126.7 253.967 115.7C253.967 106.633 256.767 98.8667 262.367 92.4C268.033 85.8667 275.4 81.8333 284.467 80.3L285.067 81.3C282.333 84.1667 280.133 88.4333 278.467 94.1C276.867 99.7 276.067 105.767 276.067 112.3C276.067 122.9 278.2 131.4 282.467 137.8C286.733 144.2 292.4 147.4 299.467 147.4C306.6 147.4 312.3 144.5 316.567 138.7C320.833 132.9 322.967 125.167 322.967 115.5C322.967 109.367 322.1 103.867 320.367 99C318.7 94.1333 316.367 90.5 313.367 88.1C310.367 85.7 307.2 84.5 303.867 84.5C299.533 84.5 296.2 85.8 293.867 88.4C291.133 91.4 289.767 95.1333 289.767 99.6C289.767 102.133 290.133 104.833 290.867 107.7H289.667Z" fill="#D7D7D7"/>
<path d="M321.822 231.262C321.814 229.662 321.906 228.062 322.098 226.461C323.132 219.789 325.604 214.011 329.513 209.126C333.423 204.24 338.305 200.584 344.16 198.156C342.331 192.365 341.401 186.269 341.37 179.869C341.308 167.27 344.591 157.021 351.219 149.123C357.914 141.291 366.729 137.349 377.662 137.298C388.595 137.246 397.381 141.205 404.02 149.174C410.726 157.142 414.111 167.66 414.175 180.726C414.212 188.259 413.481 195.596 411.983 202.737C411.332 205.94 410.611 208.543 409.821 210.547L390.616 209.638L390.612 208.738C396.871 207.108 401.522 203.919 404.565 199.172C407.676 194.49 409.215 188.816 409.182 182.15C409.149 175.483 406.189 169.997 400.301 165.691C394.413 161.386 386.669 159.256 377.07 159.301C371.003 159.329 365.641 160.288 360.983 162.177C356.326 164.065 352.706 166.749 350.123 170.228C347.607 173.707 346.359 177.546 346.379 181.746C346.4 186.012 347.383 189.341 349.328 191.732C351.34 194.189 353.946 195.41 357.146 195.395L370.746 195.331C372.213 195.391 373.344 194.952 374.14 194.015C374.935 193.145 375.329 191.876 375.321 190.209L375.314 188.709L376.314 188.705L376.478 222.304L375.478 222.309L375.471 220.709C375.463 219.109 375.057 217.878 374.252 217.015C373.448 216.152 372.313 215.757 370.847 215.831L354.647 215.907C350.78 215.925 346.951 216.71 343.158 218.261C334.775 221.768 329.402 227.326 327.04 234.938C326.384 237.141 326.061 239.342 326.072 241.542C326.083 243.742 326.327 245.908 326.804 248.039L325.805 248.244C323.176 242.256 321.848 236.595 321.822 231.262Z" fill="#D7D7D7"/>
<path d="M478.607 9.09999C481.473 8.49999 483.873 8.19999 485.807 8.19999C487.74 8.19999 489.54 8.29999 491.207 8.49999V9.49999C477.673 10.5 468.607 18.5333 464.007 33.6L445.407 94.1C444.473 97.3667 444.007 101.067 444.007 105.2H443.007L420.007 61.8L401.407 99.8C399.473 103.867 397.573 107 395.707 109.2C393.907 111.4 392.307 113.167 390.907 114.5C389.573 115.833 388.207 116.967 386.807 117.9C383.007 120.3 379.607 121.5 376.607 121.5C375.007 121.5 373.307 121.333 371.507 121V120C375.973 119.2 379.907 117.033 383.307 113.5C386.84 109.767 389.373 106.5 390.907 103.7C393.04 99.8333 394.773 96.4333 396.107 93.5L375.807 39.7C374.873 37.7667 373.607 36.3333 372.007 35.4C370.473 34.4667 368.873 34 367.207 34H366.407V33H402.307V34H401.407C399.407 34 398.073 34.9333 397.407 36.8C397.34 37.2 397.307 37.6667 397.307 38.2C397.307 38.7333 397.44 39.4 397.707 40.2L408.607 67.4L425.907 31.4L426.807 31.5L446.607 68.1L456.207 33.6C457.807 27.8 460.373 22.7667 463.907 18.5C468.107 13.4333 473.007 10.3 478.607 9.09999Z" fill="#D7D7D7"/>
<path d="M545.693 211.1C540.559 214.1 535.326 215.6 529.993 215.6C524.659 215.6 519.593 214.6 514.793 212.6C510.059 210.6 505.393 207.1 500.793 202.1C496.259 197.167 492.526 191.133 489.593 184L486.893 177.4H465.493L461.493 186.7C461.159 187.567 460.993 188.267 460.993 188.8C460.993 189.333 461.093 189.933 461.293 190.6C461.559 191.2 462.059 191.767 462.793 192.3C463.593 192.767 464.426 193 465.293 193H466.193V194H443.893V193H444.793C446.326 193 447.826 192.567 449.293 191.7C450.826 190.767 452.093 189.4 453.093 187.6L473.493 142.8C471.493 137.267 469.826 133.567 468.493 131.7C467.226 129.767 466.159 128.3 465.293 127.3C463.693 125.433 461.693 124.067 459.293 123.2C458.359 122.867 457.259 122.7 455.993 122.7C454.726 122.7 453.293 123 451.693 123.6L451.493 122.6C456.826 119.467 461.926 117.9 466.793 117.9C473.993 117.9 480.493 121.433 486.293 128.5C489.226 132.167 491.859 136.6 494.193 141.8L510.193 178.5C513.126 185.233 515.293 189.767 516.693 192.1C518.093 194.367 519.326 196.3 520.393 197.9C521.526 199.567 522.626 201 523.693 202.2C524.759 203.4 525.926 204.567 527.193 205.7C529.393 207.7 532.159 209.2 535.493 210.2C536.893 210.667 538.426 210.9 540.093 210.9C541.826 210.9 543.626 210.633 545.493 210.1L545.693 211.1ZM467.693 172.4H484.893L478.593 156.9C478.059 155.7 477.426 154 476.693 151.8L467.693 172.4Z" fill="#D7D7D7"/>
<path d="M537.661 47.3395C541.261 47.3176 544.6 48.2973 547.68 50.2786C550.692 52.1936 552.84 54.5473 554.124 57.3395C555.342 60.1321 555.959 62.8951 555.977 65.6284C555.982 66.4284 555.953 67.1952 555.891 67.9289C556.731 63.7238 559.307 59.8747 563.618 56.3817C565.542 54.77 568.03 52.9548 571.084 50.9362C574.071 48.918 576.129 47.5055 577.257 46.6986C582.965 42.6638 587.607 38.6355 591.181 34.6137C598.861 26.0335 603.058 15.0411 603.773 1.63646L604.773 1.63038C607.396 5.28115 609.292 9.86971 610.46 15.396C611.148 18.6586 611.501 21.9232 611.522 25.1898C611.542 28.3897 611.097 31.7925 610.187 35.3981C609.276 39.0037 607.898 42.5455 606.054 46.0234C604.209 49.5014 601.531 53.051 598.021 56.6725C594.51 60.2272 590.928 63.1491 587.276 65.438C583.557 67.7273 580.036 69.7154 576.714 71.4023C573.324 73.0897 570.001 74.7099 566.744 76.2631C563.487 77.7496 561.493 78.6617 560.761 78.9995C556.774 80.9572 554.551 82.704 554.094 84.2402L553.094 84.2463L553.084 82.6463C553.057 78.313 551.334 74.7568 547.917 71.9775C545.973 70.3893 543.967 69.4682 541.899 69.2141C539.764 68.9604 538.397 68.8354 537.797 68.839C532.797 68.8694 529.173 70.3582 526.925 73.3052C524.61 76.2527 523.464 79.5931 523.488 83.3263L523.516 87.7262L581.015 87.3765C582.748 87.3659 584.244 86.7235 585.503 85.4491C586.695 84.1752 587.285 82.6716 587.274 80.9383L587.267 79.7383L588.267 79.7322L588.494 115.632L587.494 115.638L587.485 114.338C587.474 112.604 586.865 111.141 585.658 109.949C584.45 108.689 582.979 108.032 581.245 107.975L525.746 108.313C523.28 108.395 521.453 109.473 520.266 111.546C519.739 112.55 519.479 113.618 519.487 114.751L519.494 115.951L518.494 115.957L518.248 76.9581C518.185 67.025 519.87 59.4812 523.305 54.3269C526.409 49.7079 531.194 47.3788 537.661 47.3395Z" fill="#D7D7D7"/>
<path d="M690.251 82.9181C693.117 82.9283 696.182 83.5725 699.444 84.8508C702.639 86.1289 705.598 88.1727 708.321 90.9824C711.044 93.7922 713.264 97.4001 714.981 101.806C716.698 106.212 717.547 111.015 717.528 116.215C717.508 121.415 716.658 126.079 714.976 130.206C711.881 137.929 706.495 142.943 698.82 145.249C696.751 145.842 694.817 146.135 693.017 146.128C687.217 146.108 681.79 144.322 676.737 140.77L677.44 139.873C681.365 142.087 685.161 143.2 688.828 143.213C693.361 143.23 697.365 142.11 700.84 139.856C704.315 137.602 707.026 134.578 708.974 130.785C710.921 126.992 711.902 123.129 711.917 119.195C711.931 115.195 711.311 111.827 710.054 109.089C708.797 106.351 707.105 104.345 704.976 103.071C702.848 101.796 700.617 101.155 698.283 101.147C695.95 101.138 693.58 101.963 691.174 103.622C688.701 105.279 686.559 107.738 684.747 110.999L675.087 127.264C670.189 135.514 663.907 139.625 656.241 139.597C649.374 139.573 644.083 137.154 640.368 132.341C637.249 128.33 635.702 122.891 635.728 116.024C635.744 111.624 636.098 106.026 636.79 99.2279L636.819 91.428L653.111 93.586L653.107 94.586C649.441 94.5729 646.469 95.9957 644.191 98.8543C641.914 101.713 640.767 105.375 640.751 109.842C640.734 114.309 641.488 117.745 643.013 120.15C644.537 122.556 646.566 123.863 649.098 124.072C650.831 124.278 652.299 123.817 653.503 122.688C654.574 121.691 655.411 120.694 656.014 119.696C656.551 118.698 657.055 117.8 657.524 117.002C657.994 116.204 658.296 115.638 658.431 115.305L669.2 96.6433C671.549 92.4516 674.461 89.1953 677.936 86.8743C681.879 84.2216 685.984 82.9029 690.251 82.9181Z" fill="#D7D7D7"/>
<path d="M600.288 154.9V212.8C600.355 214.533 600.988 216 602.188 217.2C603.455 218.4 604.955 219 606.688 219H607.988V220H572.088V219H573.388C575.121 219 576.588 218.4 577.788 217.2C579.055 216 579.721 214.567 579.788 212.9V154.9H569.888C565.888 154.967 562.755 156.167 560.488 158.5C558.221 160.767 557.088 163.9 557.088 167.9V168.6L556.088 168.7V148.1C557.021 148.5 558.688 148.9 561.088 149.3C563.555 149.7 565.821 149.9 567.888 149.9H612.188C614.255 149.9 616.488 149.7 618.888 149.3C621.288 148.9 622.988 148.5 623.988 148.1V168.7L622.988 168.6V167.9C622.988 162.5 620.988 158.7 616.988 156.5C615.055 155.5 612.755 154.967 610.088 154.9H600.288Z" fill="#D7D7D7"/>
</svg>
