<?xml version="1.0"?>
<svg xmlns="http://www.w3.org/2000/svg" xmlns:xlink="http://www.w3.org/1999/xlink" xmlns:svgjs="http://svgjs.com/svgjs" version="1.1" width="512" height="512" x="0" y="0" viewBox="0 0 510.006 510.006" style="enable-background:new 0 0 512 512" xml:space="preserve" class=""><g><g xmlns="http://www.w3.org/2000/svg"><path d="m141.706 27.046c-16.597-10.596-33.586-18.435-49.881-22.866-31.323-8.517-57.858-3.923-74.715 12.933-26.892 26.892-21.094 77.462 11.418 126.968 23.63-50.526 64.041-91.983 113.178-117.035z" fill="#d7d7d7" data-original="#000000" style="" class=""/><path d="m492.895 17.113c-16.857-16.858-43.389-21.451-74.715-12.933-16.295 4.432-33.284 12.27-49.881 22.865 49.104 25.036 89.531 66.475 113.178 117.036 32.514-49.505 38.31-100.076 11.418-126.968z" fill="#d7d7d7" data-original="#000000" style="" class=""/><path d="m296.264 264.624c-6.575-34.068-6.735-69.672-.479-105.823 10.385-60.004 34.852-101.07 36.904-104.436l4.899-8.37c-52.647-21.323-112.491-21.337-165.172 0l4.899 8.37c2.052 3.365 26.519 44.432 36.904 104.436 13.777 79.602-3.171 157.325-54.905 225.29-20.502 25.62-10.773 13.462-13.498 16.867 10.429 11.443 19.141 24.478 26.085 39.093 15.815-29.744 47.129-50.045 83.101-50.045s67.285 20.301 83.101 50.045c6.945-14.614 15.658-27.651 26.087-39.095-4.118-6.465-52.239-55.05-67.926-136.332z" fill="#d7d7d7" data-original="#000000" style="" class=""/><path d="m184.845 164.998c-9.46-55.902-32.938-94.681-33.173-95.066-7.867-13.429-5.997-10.237-6.29-10.737-66.444 38.349-110.207 109.515-110.207 190.638.001 1.907-.007-15.879.047 99.039l13.632 1.248c.302.028 30.582 2.995 62.791 22.716 4.109 2.516 8.045 5.197 11.845 8.009l12.064-15.069c45.195-59.447 61.776-126.994 49.291-200.778zm-34.842 75.008h-30v-30h30z" fill="#d7d7d7" data-original="#000000" style="" class=""/><path d="m364.621 59.193-6.298 10.758c-.224.366-23.702 39.145-33.162 95.047-12.486 73.784 4.095 141.331 49.29 200.777l12.065 15.069c3.8-2.811 7.736-5.493 11.845-8.009 32.209-19.721 62.489-22.688 62.745-22.712l13.725-1.171v-99.12c-.001-80.948-43.684-152.242-110.21-190.639zm25.382 180.813h-30v-30h30z" fill="#d7d7d7" data-original="#000000" style="" class=""/><path d="m255.003 420.006c-35.376 0-64.053 28.677-64.053 64.053v25.947h128.106v-25.947c0-35.377-28.678-64.053-64.053-64.053z" fill="#d7d7d7" data-original="#000000" style="" class=""/></g></g></svg>
