<svg width="63" height="57" viewBox="0 0 63 57" fill="none" xmlns="http://www.w3.org/2000/svg">
<path d="M60.939 21.3388C60.2622 20.7843 57.6838 19.7395 56.0743 19.1171L52.5687 16.2732C52.4348 16.0841 52.2495 15.933 52.0296 15.8363L51.1197 15.0982L50.661 13.9431C50.6151 13.8237 50.5482 13.7115 50.4659 13.612C47.7593 10.3683 43.1181 7.57857 41.7782 6.80979C41.4398 6.19744 40.6601 5.1219 38.9779 4.02205C35.9768 2.05636 31.4562 0.817202 25.5401 0.338606C24.6858 0.268896 23.8275 0.234619 22.9902 0.234619C19.3698 0.234619 15.9119 0.886913 12.7179 2.17402C10.1643 3.20242 7.77495 4.63613 5.61875 6.43344C1.94881 9.49261 0.22268 12.5455 0.151961 12.6739C-0.0506535 13.0349 -0.0506535 13.4673 0.151961 13.8292L23.6403 55.8193C23.648 55.8356 23.6593 55.8501 23.6689 55.8681C23.6746 55.879 23.6822 55.8899 23.6899 55.9007C23.7071 55.926 23.7243 55.9514 23.7434 55.973C23.7511 55.9839 23.7587 55.9911 23.7664 56.002C23.7817 56.0201 23.797 56.0382 23.8142 56.0563C23.82 56.0636 23.8276 56.0708 23.8353 56.0798C23.885 56.1287 23.9366 56.1757 23.992 56.2155C23.9997 56.2228 24.0093 56.2264 24.0169 56.2336C24.0379 56.2481 24.0608 56.2625 24.0818 56.277C24.0914 56.2806 24.0991 56.2879 24.1105 56.2934C24.1373 56.3097 24.1677 56.3259 24.1983 56.3404C24.206 56.3458 24.2156 56.3494 24.2251 56.353C24.2481 56.3639 24.271 56.3729 24.294 56.3819C24.3073 56.3874 24.3208 56.3928 24.3361 56.3964C24.3552 56.4037 24.3782 56.4109 24.3972 56.4182C24.4125 56.4218 24.424 56.4255 24.4374 56.4291C24.4699 56.4381 24.5005 56.4454 24.5349 56.4508C24.5464 56.4544 24.5597 56.4563 24.5732 56.4581C24.5961 56.4617 24.6191 56.4654 24.6439 56.469C24.6572 56.469 24.6707 56.4709 24.684 56.4726C24.7166 56.4745 24.749 56.4762 24.7835 56.4762C24.7873 56.4762 24.7893 56.4762 24.7912 56.4762C24.795 56.4762 24.795 56.4762 24.7989 56.4762C24.8257 56.4762 24.8525 56.4762 24.8792 56.4726C25.1277 56.4581 31.0303 56.0782 36.826 54.1858C44.0991 51.8105 46.0927 46.6745 46.4865 42.7849C46.7159 40.4983 46.4291 38.3942 46.1195 36.9596C48.268 37.2581 51.6322 37.6831 53.4251 37.6831C53.666 37.6831 53.8724 37.6758 54.056 37.6613C57.12 37.4191 57.7777 35.0093 57.8025 34.908C57.8216 34.8392 57.8331 34.7704 57.8369 34.6999L57.8961 33.9022C60.2642 32.2631 60.5701 28.9489 60.6753 27.7973C60.6773 27.7647 60.6811 27.7294 60.6849 27.6959C60.8072 27.5177 61.0749 27.1904 61.2622 26.9614C61.6311 26.51 61.9312 26.1346 62.1567 25.799C62.1583 25.7963 62.1603 25.7936 62.1641 25.79C62.47 25.3314 62.6344 24.9461 62.6344 24.5409C62.6344 23.5766 61.843 22.0805 60.939 21.3388ZM2.7994 13.2828C3.42058 12.3421 4.90776 10.3185 7.34488 8.28691C9.29272 6.66411 11.4432 5.37145 13.7387 4.4461C16.6098 3.2902 19.7217 2.70391 22.9903 2.70391C23.7549 2.70391 24.5367 2.73645 25.3186 2.79979C28.9236 3.09114 33.9125 3.86086 37.2041 5.86996C37.3762 5.97476 37.5368 6.07886 37.6839 6.18111C34.7346 6.03092 30.1184 6.01923 25.2345 6.86491C20.4328 7.6953 16.3748 9.18875 13.1769 11.3036C9.98853 13.412 7.6603 16.1303 6.22671 19.4093L2.7994 13.2828ZM7.90097 22.4024C8.99051 18.6395 11.2576 15.593 14.6466 13.3442C17.5272 11.4348 21.2259 10.0752 25.6433 9.30444C30.7737 8.40978 35.7015 8.5265 38.4158 8.70379C37.6627 9.87266 36.7415 11.5596 36.0609 13.6464C34.9332 13.5985 33.0408 13.5895 30.7852 13.8617C25.9722 14.4415 21.763 16.0416 18.6148 18.4894C15.1493 21.1823 12.8898 24.8773 11.873 29.5031L7.90097 22.4024ZM13.949 33.2144C13.9548 33.18 13.9605 33.1457 13.9624 33.1095C14.4383 27.5655 16.5562 23.2925 20.2569 20.4087C23.7358 17.6987 28.0405 16.6901 31.0376 16.321C32.8229 16.1012 34.3712 16.0759 35.4265 16.0985C35.0556 18.0272 34.9906 19.9547 35.2277 21.8642C32.5362 22.0894 26.8898 23.0826 22.6769 27.3683C19.6184 30.4792 17.9441 34.6762 17.6764 39.8792L13.949 33.2144ZM23.4127 50.1333L20.4289 44.8C20.4269 44.7782 20.4269 44.7584 20.4251 44.7385C19.7179 37.8711 21.1113 32.5995 24.5693 29.0699C26.5648 27.0328 29.197 25.6063 32.3949 24.8312C33.7443 24.5028 34.92 24.3671 35.7017 24.3101C35.7934 24.6639 35.8966 25.0157 36.0112 25.3676C36.3496 26.4151 36.7836 27.4516 37.3111 28.4765C35.7245 29.2337 32.972 30.8049 30.3227 33.5655C27.9965 35.9878 26.2246 38.8319 25.0508 42.0177C24.1315 44.5214 23.5829 47.2352 23.4127 50.1333ZM31.5079 53.0261C29.2447 53.5002 27.2453 53.7589 26.0086 53.891C25.8042 49.8656 26.2992 46.1768 27.4863 42.9077C28.5299 40.0457 30.1031 37.4915 32.1656 35.3168C34.6237 32.7296 37.2118 31.2859 38.5767 30.6421C39.5858 32.1835 40.8092 33.6904 42.2448 35.1575C41.1264 35.8234 39.559 36.9232 37.9553 38.5695C36.2406 40.3281 34.8338 42.3615 33.7711 44.6119C32.5706 47.1574 31.8099 49.985 31.5079 53.0261ZM43.8866 42.5497C43.424 47.1593 40.7593 50.2871 35.9729 51.8502C35.3862 52.0419 34.7955 52.2175 34.2066 52.3767C34.5278 49.9705 35.1682 47.7289 36.1181 45.6974C37.0511 43.7001 38.2859 41.8946 39.7882 40.3315C41.1147 38.9531 42.4873 37.9453 43.5309 37.3068C43.8101 38.5551 44.0969 40.4746 43.8866 42.5497ZM58.0586 26.0805L58.651 26.1375C58.3603 26.5244 58.1978 26.8058 58.1328 27.1125C58.108 27.2364 58.0946 27.3666 58.0736 27.5829C57.9935 28.4577 57.7564 31.04 56.254 31.9737C55.7589 31.9845 54.4343 31.9628 51.9091 31.5973C51.1961 31.496 50.5309 31.9592 50.422 32.6323C50.313 33.3052 50.8024 33.9367 51.5155 34.0397C53.1842 34.2786 54.3884 34.3833 55.2255 34.4231C55.1165 34.6384 54.7706 35.1252 53.8378 35.1976C53.7288 35.2085 53.5893 35.2121 53.4249 35.2121C51.2994 35.2121 46.4327 34.5137 44.9876 34.2985C41.7879 31.2427 39.6145 28.0182 38.5269 24.7075C37.6398 22.0101 37.464 19.2385 38.0069 16.4689C38.6607 13.1329 40.2128 10.5766 41.1016 9.32285C42.7818 10.3386 46.2015 12.5629 48.2906 14.9952L48.5793 15.7208H46.9373C46.2186 15.7208 45.6338 16.2744 45.6338 16.9564C45.6338 17.6385 46.2186 18.1912 46.9373 18.1912H46.9756C46.9756 18.8732 47.5606 19.4258 48.2811 19.4258C49.0019 19.4258 49.5867 18.8732 49.5867 18.1912H50.921L54.5375 21.1227C54.6445 21.2096 54.763 21.2793 54.8949 21.3299C56.6783 22.0146 58.8421 22.9319 59.2378 23.2122C59.3812 23.3344 59.5361 23.5379 59.668 23.7532L58.326 23.6229C57.6073 23.5542 56.9688 24.0471 56.8943 24.7265C56.8198 25.4049 57.3436 26.0109 58.0586 26.0805Z" fill="#D7D7D7"/>
</svg>
