<svg width="49" height="47" viewBox="0 0 49 47" fill="none" xmlns="http://www.w3.org/2000/svg">
<g clip-path="url(#clip0)">
<path d="M48.5276 43.2361L39.4347 35.3424C39.4337 35.3414 39.4326 35.3408 39.4316 35.3399C39.4299 35.3384 39.4284 35.3368 39.4268 35.3354L28.1682 25.7067C28.1272 25.6648 28.0841 25.624 28.0367 25.5864C28.0182 25.5717 27.9986 25.5591 27.9797 25.5454L16.5031 15.7301L16.4874 11.1277H25.1257C25.9186 11.1277 26.5615 10.5111 26.5615 9.75055C26.5615 8.24416 25.4533 6.59556 23.5971 5.34063C21.7247 4.07469 19.3938 3.3775 17.0336 3.3775H14.6459C13.1511 1.61965 10.8767 0.494629 8.33284 0.494629H8.14486C3.65373 0.494629 0 3.99931 0 8.30695V26.4686C0 32.2215 4.55364 36.9811 10.4116 37.6575V43.751H7.93859C7.14569 43.751 6.50287 44.3675 6.50287 45.1281C6.50287 45.8886 7.14569 46.5052 7.93859 46.5052C10.6227 46.5057 18.9457 46.5051 21.7478 46.5052C22.5407 46.5052 23.1835 45.8886 23.1835 45.1281C23.1835 44.3675 22.5407 43.751 21.7478 43.751H19.3794V37.7405H24.0845C29.5649 42.9047 37.2272 45.6342 46.264 45.6342H47.5642C48.1579 45.6342 48.6905 45.2837 48.9039 44.7523C49.1174 44.2209 48.9679 43.6183 48.5276 43.2361ZM16.5689 34.9862L16.5502 29.4901C17.9109 30.068 19.4955 30.3741 21.0826 30.3741C21.5607 30.3741 22.0393 30.3463 22.5116 30.29C24.3186 30.0742 25.9185 29.4601 27.1512 28.5269L34.7039 34.9863H16.5689V34.9862ZM24.9577 26.651C22.8729 27.925 19.6238 27.8757 17.485 26.8708L16.5396 26.4285L16.5157 19.4311L24.9577 26.651ZM17.0335 6.13174C18.781 6.13174 20.5703 6.66395 21.9427 7.59177C22.318 7.84553 22.6348 8.11223 22.8911 8.37342H16.4779L16.4777 8.30695C16.4777 7.55211 16.3633 6.82269 16.154 6.13174H17.0335ZM2.87145 26.4687V8.30695C2.87145 5.51791 5.23704 3.24878 8.14486 3.24878H8.33284C11.2406 3.24878 13.6063 5.51791 13.6063 8.31145L13.6109 9.64781C13.6083 9.68187 13.6054 9.71584 13.6054 9.75055C13.6054 9.79002 13.6082 9.82886 13.6115 9.86751L13.6974 34.9862H11.8473C9.46601 34.9862 7.21671 34.0981 5.51375 32.4853C3.80984 30.8717 2.87145 28.7349 2.87145 26.4687ZM16.508 43.751H13.2831V37.7405H16.508V43.751ZM28.4813 37.7405H37.9182L43.7485 42.8019C37.7946 42.4267 32.6043 40.7026 28.4813 37.7405Z" fill="#D7D7D7"/>
<path d="M9.83276 9.21324C10.6199 9.21324 11.2581 8.60116 11.2581 7.84612C11.2581 7.09108 10.6199 6.479 9.83276 6.479C9.0456 6.479 8.40747 7.09108 8.40747 7.84612C8.40747 8.60116 9.0456 9.21324 9.83276 9.21324Z" fill="#D7D7D7"/>
</g>
<defs>
<clipPath id="clip0">
<rect width="49" height="47" fill="white"/>
</clipPath>
</defs>
</svg>
