<?xml version="1.0"?>
<svg xmlns="http://www.w3.org/2000/svg" xmlns:xlink="http://www.w3.org/1999/xlink" xmlns:svgjs="http://svgjs.com/svgjs" version="1.1" width="512" height="512" x="0" y="0" viewBox="0 0 511.927 511.927" style="enable-background:new 0 0 512 512" xml:space="preserve" class=""><g transform="matrix(1,0,0,1,0,0)"><g xmlns="http://www.w3.org/2000/svg"><path d="m147.179 375.602-1.035-315.687c-.001-33.061-26.854-59.915-59.862-59.915-40.315 0-72.996 32.681-72.996 72.996v201.804c0 26.82 10.652 52.107 29.995 71.204 19.331 19.087 55.865 29.598 82.896 29.598zm-48.286-302.977c-10.583 1.334-19.484-7.567-18.15-18.15.909-7.211 6.732-13.034 13.943-13.943 10.583-1.334 19.483 7.567 18.149 18.15-.908 7.212-6.731 13.035-13.942 13.943z" fill="#d7d7d7" data-original="#000000" style="" class=""/><path d="m299.899 299.157c-13.992 11.045-32.154 18.312-52.667 20.866-5.362.667-10.794.996-16.221.996-18.016 0-36.004-3.624-51.451-10.462l.213 65.044h205.861z" fill="#d7d7d7" data-original="#000000" style="" class=""/><path d="m275 276.956-95.829-85.445.272 82.812 10.731 5.235c24.278 11.892 61.161 12.476 84.826-2.602z" fill="#d7d7d7" data-original="#000000" style="" class=""/><path d="m421.151 408.197h-161.294c75.272 61.019 152.465 77.123 231.746 77.123h2.181c4.436 0 6.541-5.464 3.253-8.441z" fill="#d7d7d7" data-original="#000000" style="" class=""/><path d="m178.739 59.862.056 17.084h83.994c1.061 0 1.921-.86 1.921-1.921 0-20.97-34.385-48.037-77.618-48.037h-14.414c3.903 10.221 6.061 21.297 6.061 32.874z" fill="#d7d7d7" data-original="#000000" style="" class=""/><path d="m238.563 479.329h-26.884v-71.132h-32.596v71.132h-36.609v-71.132h-16.298c-5.516 0-10.954-.339-16.298-.982v72.114h-28.071c-9.001 0-16.298 7.297-16.298 16.298s7.297 16.298 16.298 16.298h44.328c.014 0 .028.002.042.002s.028-.002.042-.002h112.344c9.001 0 16.298-7.297 16.298-16.298s-7.297-16.298-16.298-16.298z" fill="#d7d7d7" data-original="#000000" style="" class=""/></g></g></svg>
